<svg width="85" height="86" viewBox="0 0 85 86" fill="none" xmlns="http://www.w3.org/2000/svg">
<g filter="url(#filter0_d_0_199)">
<ellipse cx="42.9684" cy="32" rx="31.9987" ry="32" fill="#4D337F" fill-opacity="0.5"/>
<ellipse cx="42.9677" cy="32" rx="24.999" ry="25" fill="#644696"/>
<path d="M45.482 48C44.5428 48 43.5987 48 42.6595 48C42.6595 46.3995 42.6595 44.8041 42.6595 43.1576C41.9393 43.1576 41.2434 43.1576 40.5524 43.1576C40.3869 43.1576 40.421 43.3007 40.421 43.403C40.421 44.937 40.421 46.4711 40.421 48C39.4818 48 38.5377 48 37.5985 48C37.5985 46.3688 37.5985 44.7376 37.5985 43.0706C35.7006 43.0706 33.8368 43.0706 31.9875 43.0706C31.9729 43.0195 31.9681 42.999 31.9681 42.9888C32.1433 41.8996 32.3185 40.8054 32.4888 39.7162C32.5131 39.5526 32.6056 39.5628 32.7126 39.5628C33.2869 39.5628 33.866 39.5628 34.4402 39.5628C35.2334 39.5577 35.6081 39.1537 35.6081 38.3151C35.6081 34.0709 35.6081 29.8268 35.6081 25.5877C35.6081 24.6673 35.0728 24.0639 34.1969 24.0128C33.7346 23.9872 33.2723 23.9872 32.81 23.9821C32.5277 23.977 32.2503 23.9821 31.9681 23.9821C31.9681 22.9236 31.9681 21.8958 31.9681 20.8373C33.8514 20.8373 35.7201 20.8373 37.5985 20.8373C37.5985 19.201 37.5985 17.6005 37.5985 16C38.5377 16 39.4818 16 40.421 16C40.421 17.5085 40.421 19.0169 40.4113 20.5254C40.4113 20.7044 40.4648 20.7606 40.6351 20.7555C41.1217 20.7351 41.6084 20.7351 42.095 20.7299C42.2751 20.7299 42.46 20.7299 42.6595 20.7299C42.6595 19.1192 42.6595 17.5596 42.6595 16C43.5987 16 44.5428 16 45.482 16C45.4772 16.1023 45.4723 16.2045 45.4723 16.3068C45.4723 17.6721 45.4723 19.0323 45.4723 20.3976C45.4723 20.868 45.4723 20.8629 45.9297 20.914C47.1804 21.0572 48.4116 21.2924 49.5698 21.86C50.6599 22.3918 51.5115 23.1691 51.9592 24.3758C52.2804 25.2451 52.3582 26.1451 52.295 27.0604C52.1879 28.6251 51.4969 29.8166 50.2073 30.6143C50.1197 30.6705 50.0321 30.7216 49.9104 30.7932C49.9883 30.8341 50.0224 30.8495 50.0613 30.8648C50.5431 31.054 51.0492 31.2023 51.5115 31.4477C52.6356 32.046 53.4434 32.946 53.7597 34.2653C54.0809 35.5845 54.0079 36.9038 53.6965 38.2077C53.424 39.3378 52.913 40.3298 52.0565 41.0968C51.0881 41.9661 49.925 42.4263 48.7036 42.682C47.7303 42.8814 46.7327 42.9632 45.7399 43.0757C45.5258 43.1013 45.4674 43.1729 45.4723 43.3877C45.4869 43.7814 45.4772 44.17 45.4772 44.5638C45.4772 45.6989 45.4772 46.8495 45.482 48ZM40.4745 39.5628C41.3456 39.5628 42.1729 39.5833 42.9953 39.5577C44.1146 39.5219 45.229 39.3941 46.2898 38.985C46.9565 38.7293 47.5892 38.3867 47.9688 37.7168C48.7133 36.4129 48.324 34.7613 47.0733 33.9891C46.1633 33.4267 45.1511 33.1761 44.1048 33.125C42.9953 33.0738 41.8858 33.0892 40.7762 33.0585C40.5329 33.0534 40.4648 33.125 40.4648 33.3857C40.4745 35.3442 40.4697 37.3027 40.4697 39.2611C40.4745 39.3531 40.4745 39.4452 40.4745 39.5628ZM40.4794 27.1371C40.4794 28.0473 40.4794 28.9626 40.4794 29.8728C40.4794 30.016 40.4843 30.1131 40.6692 30.1182C42.0902 30.1438 43.5063 30.1387 44.8932 29.7501C45.6134 29.5455 46.2412 29.1774 46.6792 28.5484C47.3459 27.5871 47.122 25.9968 46.2412 25.2247C45.5258 24.6008 44.6547 24.3605 43.7642 24.2838C42.7471 24.1969 41.7252 24.2224 40.7032 24.1866C40.5037 24.1815 40.4794 24.2787 40.4794 24.4525C40.4794 25.3474 40.4745 26.2423 40.4794 27.1371Z" fill="white"/>
</g>
<defs>
<filter id="filter0_d_0_199" x="0.969727" y="0" width="83.9974" height="86" filterUnits="userSpaceOnUse" color-interpolation-filters="sRGB">
<feFlood flood-opacity="0" result="BackgroundImageFix"/>
<feColorMatrix in="SourceAlpha" type="matrix" values="0 0 0 0 0 0 0 0 0 0 0 0 0 0 0 0 0 0 127 0" result="hardAlpha"/>
<feOffset dy="12"/>
<feGaussianBlur stdDeviation="5"/>
<feColorMatrix type="matrix" values="0 0 0 0 0.0973605 0 0 0 0 0.0434774 0 0 0 0 0.165939 0 0 0 0.25 0"/>
<feBlend mode="normal" in2="BackgroundImageFix" result="effect1_dropShadow_0_199"/>
<feBlend mode="normal" in="SourceGraphic" in2="effect1_dropShadow_0_199" result="shape"/>
</filter>
</defs>
</svg>
