<svg width="40" height="40" viewBox="0 0 40 40" fill="none" xmlns="http://www.w3.org/2000/svg">
<g filter="url(#filter0_d_0_773)">
<circle cx="20" cy="16" r="15" stroke="#1190F2" stroke-width="2"/>
</g>
<path d="M21.3712 24.6952C20.8589 24.6952 20.344 24.6952 19.8317 24.6952C19.8317 23.8601 19.8317 23.0278 19.8317 22.1687C19.4388 22.1687 19.0593 22.1687 18.6823 22.1687C18.5921 22.1687 18.6107 22.2434 18.6107 22.2968C18.6107 23.0971 18.6107 23.8975 18.6107 24.6952C18.0984 24.6952 17.5834 24.6952 17.0711 24.6952C17.0711 23.8441 17.0711 22.9931 17.0711 22.1234C16.0359 22.1234 15.0193 22.1234 14.0106 22.1234C14.0027 22.0967 14 22.086 14 22.0807C14.0956 21.5125 14.1911 20.9416 14.284 20.3733C14.2973 20.2879 14.3477 20.2933 14.4061 20.2933C14.7193 20.2933 15.0352 20.2933 15.3484 20.2933C15.7811 20.2906 15.9855 20.0799 15.9855 19.6423C15.9855 17.428 15.9855 15.2138 15.9855 13.0021C15.9855 12.5219 15.6935 12.2071 15.2157 12.1805C14.9635 12.1671 14.7114 12.1671 14.4592 12.1645C14.3053 12.1618 14.154 12.1645 14 12.1645C14 11.6122 14 11.076 14 10.5238C15.0272 10.5238 16.0465 10.5238 17.0711 10.5238C17.0711 9.67005 17.0711 8.83503 17.0711 8C17.5834 8 18.0984 8 18.6107 8C18.6107 8.787 18.6107 9.57401 18.6054 10.361C18.6054 10.4544 18.6346 10.4837 18.7275 10.4811C18.9929 10.4704 19.2583 10.4704 19.5238 10.4677C19.622 10.4677 19.7229 10.4677 19.8317 10.4677C19.8317 9.62737 19.8317 8.81368 19.8317 8C20.344 8 20.8589 8 21.3712 8C21.3686 8.05336 21.3659 8.10671 21.3659 8.16007C21.3659 8.87237 21.3659 9.58201 21.3659 10.2943C21.3659 10.5398 21.3659 10.5371 21.6154 10.5638C22.2976 10.6385 22.9692 10.7612 23.6009 11.0573C24.1955 11.3348 24.66 11.7403 24.9042 12.3699C25.0794 12.8234 25.1219 13.2929 25.0874 13.7705C25.029 14.5868 24.6521 15.2084 23.9487 15.6246C23.9009 15.654 23.8531 15.6806 23.7867 15.718C23.8292 15.7393 23.8478 15.7473 23.869 15.7553C24.1318 15.854 24.4079 15.9314 24.66 16.0595C25.2732 16.3716 25.7138 16.8411 25.8864 17.5294C26.0616 18.2177 26.0217 18.906 25.8519 19.5863C25.7032 20.1759 25.4245 20.6934 24.9573 21.0936C24.4291 21.5471 23.7947 21.7873 23.1285 21.9206C22.5976 22.0247 22.0534 22.0674 21.5119 22.1261C21.3951 22.1394 21.3633 22.1768 21.3659 22.2888C21.3739 22.4942 21.3686 22.697 21.3686 22.9024C21.3686 23.4946 21.3686 24.0949 21.3712 24.6952ZM18.6399 20.2933C19.115 20.2933 19.5663 20.3039 20.0149 20.2906C20.6254 20.2719 21.2332 20.2052 21.8119 19.9918C22.1755 19.8584 22.5206 19.6797 22.7276 19.3302C23.1338 18.6499 22.9214 17.7882 22.2392 17.3854C21.7429 17.0919 21.1907 16.9612 20.6201 16.9345C20.0149 16.9078 19.4096 16.9158 18.8044 16.8998C18.6717 16.8972 18.6346 16.9345 18.6346 17.0706C18.6399 18.0923 18.6372 19.1141 18.6372 20.1359C18.6399 20.1839 18.6399 20.2319 18.6399 20.2933ZM18.6425 13.8105C18.6425 14.2854 18.6425 14.7629 18.6425 15.2378C18.6425 15.3125 18.6452 15.3632 18.7461 15.3658C19.5211 15.3792 20.2936 15.3765 21.0501 15.1737C21.4429 15.067 21.7853 14.875 22.0242 14.5468C22.3879 14.0453 22.2658 13.2156 21.7853 12.8127C21.3951 12.4873 20.92 12.3619 20.4342 12.3219C19.8795 12.2765 19.3221 12.2898 18.7646 12.2712C18.6558 12.2685 18.6425 12.3192 18.6425 12.4099C18.6425 12.8768 18.6399 13.3436 18.6425 13.8105Z" fill="white"/>
<defs>
<filter id="filter0_d_0_773" x="0" y="0" width="40" height="40" filterUnits="userSpaceOnUse" color-interpolation-filters="sRGB">
<feFlood flood-opacity="0" result="BackgroundImageFix"/>
<feColorMatrix in="SourceAlpha" type="matrix" values="0 0 0 0 0 0 0 0 0 0 0 0 0 0 0 0 0 0 127 0" result="hardAlpha"/>
<feOffset dy="4"/>
<feGaussianBlur stdDeviation="2"/>
<feColorMatrix type="matrix" values="0 0 0 0 0 0 0 0 0 0 0 0 0 0 0 0 0 0 0.15 0"/>
<feBlend mode="normal" in2="BackgroundImageFix" result="effect1_dropShadow_0_773"/>
<feBlend mode="normal" in="SourceGraphic" in2="effect1_dropShadow_0_773" result="shape"/>
</filter>
</defs>
</svg>
