<svg width="334" height="67" viewBox="0 0 334 67" fill="none" xmlns="http://www.w3.org/2000/svg">
<g filter="url(#filter0_d_8_2)">
<circle cx="33.5" cy="29.5" r="28.5" stroke="#1190F2" stroke-width="2"/>
</g>
<path d="M36.1282 45C35.1463 45 34.1593 45 33.1774 45C33.1774 43.4495 33.1774 41.904 33.1774 40.3089C32.4245 40.3089 31.6969 40.3089 30.9745 40.3089C30.8015 40.3089 30.8371 40.4476 30.8371 40.5467C30.8371 42.0328 30.8371 43.5189 30.8371 45C29.8552 45 28.8682 45 27.8863 45C27.8863 43.4198 27.8863 41.8396 27.8863 40.2247C25.9022 40.2247 23.9536 40.2247 22.0204 40.2247C22.0051 40.1751 22 40.1553 22 40.1454C22.1832 39.0903 22.3663 38.0302 22.5444 36.9751C22.5698 36.8166 22.6665 36.8265 22.7784 36.8265C23.3787 36.8265 23.9842 36.8265 24.5845 36.8265C25.4138 36.8215 25.8055 36.4302 25.8055 35.6178C25.8055 31.5062 25.8055 27.3947 25.8055 23.2881C25.8055 22.3965 25.2459 21.8119 24.3301 21.7624C23.8468 21.7376 23.3635 21.7376 22.8802 21.7327C22.5851 21.7277 22.2951 21.7327 22 21.7327C22 20.7073 22 19.7116 22 18.6862C23.9689 18.6862 25.9225 18.6862 27.8863 18.6862C27.8863 17.101 27.8863 15.5505 27.8863 14C28.8682 14 29.8552 14 30.8371 14C30.8371 15.4613 30.8371 16.9227 30.827 18.384C30.827 18.5574 30.8829 18.6119 31.061 18.6069C31.5697 18.5871 32.0785 18.5871 32.5873 18.5821C32.7755 18.5821 32.9688 18.5821 33.1774 18.5821C33.1774 17.0217 33.1774 15.5109 33.1774 14C34.1593 14 35.1463 14 36.1282 14C36.1231 14.0991 36.118 14.1981 36.118 14.2972C36.118 15.6198 36.118 16.9375 36.118 18.2601C36.118 18.7159 36.118 18.7109 36.5963 18.7605C37.9038 18.8992 39.1909 19.127 40.4018 19.6769C41.5414 20.1921 42.4317 20.945 42.8998 22.1141C43.2356 22.9562 43.317 23.8281 43.2508 24.7148C43.1389 26.2306 42.4165 27.3848 41.0683 28.1576C40.9767 28.212 40.8851 28.2616 40.7579 28.3309C40.8393 28.3706 40.8749 28.3854 40.9156 28.4003C41.4193 28.5836 41.9484 28.7272 42.4317 28.965C43.607 29.5446 44.4515 30.4164 44.7822 31.6945C45.118 32.9725 45.0417 34.2506 44.7161 35.5137C44.4312 36.6085 43.897 37.5695 43.0015 38.3126C41.9891 39.1547 40.7732 39.6005 39.4962 39.8482C38.4787 40.0414 37.4357 40.1206 36.3979 40.2296C36.174 40.2544 36.113 40.3237 36.118 40.5318C36.1333 40.9132 36.1231 41.2897 36.1231 41.6711C36.1231 42.7709 36.1231 43.8854 36.1282 45ZM30.8931 36.8265C31.8038 36.8265 32.6687 36.8463 33.5285 36.8215C34.6986 36.7868 35.8637 36.663 36.9728 36.2667C37.6698 36.019 38.3311 35.6871 38.728 35.0382C39.5064 33.775 39.0994 32.175 37.7919 31.427C36.8405 30.8821 35.7823 30.6393 34.6884 30.5898C33.5285 30.5403 32.3685 30.5551 31.2085 30.5254C30.9541 30.5205 30.8829 30.5898 30.8829 30.8424C30.8931 32.7397 30.888 34.6369 30.888 36.5342C30.8931 36.6234 30.8931 36.7125 30.8931 36.8265ZM30.8982 24.7891C30.8982 25.6708 30.8982 26.5575 30.8982 27.4393C30.8982 27.578 30.9033 27.6721 31.0966 27.6771C32.5822 27.7018 34.0627 27.6969 35.5126 27.3204C36.2656 27.1222 36.9219 26.7656 37.3798 26.1563C38.0768 25.225 37.8427 23.6844 36.9219 22.9364C36.174 22.3321 35.2633 22.0992 34.3323 22.0249C33.269 21.9407 32.2006 21.9655 31.1322 21.9308C30.9236 21.9259 30.8982 22.02 30.8982 22.1884C30.8982 23.0553 30.8931 23.9222 30.8982 24.7891Z" fill="white"/>
<path d="M283.011 29.9886C283.011 26.7361 283.023 23.4952 283 20.2427C283 19.643 283.206 19.297 283.709 19.0086C289.28 15.7446 294.84 12.4691 300.388 9.18197C300.88 8.89363 301.257 8.97437 301.704 9.23964C306.954 12.3537 312.228 15.4447 317.479 18.5588C319.114 19.5276 318.989 19.0317 318.989 21.2346C318.989 27.382 318.977 33.5294 319 39.6884C319 40.3458 318.794 40.738 318.222 41.0724C312.731 44.2788 307.263 47.5082 301.795 50.7491C301.223 51.0836 300.788 51.0836 300.228 50.7491C294.76 47.5082 289.28 44.2903 283.801 41.084C283.229 40.7495 283.011 40.3574 283.023 39.6999C283.023 36.4475 283.011 33.218 283.011 29.9886ZM313.795 30.7614C313.806 30.9805 313.852 31.142 313.818 31.2804C313.52 32.4684 313.303 33.6909 312.868 34.8327C311.85 37.5201 309.906 39.4577 307.526 40.9571C304.266 43.0101 300.971 45.0169 297.688 47.0469C297.505 47.1622 297.334 47.2891 297.116 47.439C297.254 47.5659 297.311 47.6351 297.391 47.6812C298.249 48.2233 299.107 48.7538 299.965 49.2844C300.731 49.7573 301.486 49.6534 302.218 49.1806C302.973 48.6962 303.74 48.2348 304.495 47.7504C304.621 47.6697 304.724 47.5774 304.907 47.4505C303.934 46.8277 303.019 46.228 302.024 45.5821C303.465 44.7517 304.792 43.9558 306.142 43.2177C306.314 43.1254 306.668 43.2177 306.863 43.3446C307.515 43.7713 308.144 44.2442 308.773 44.7171C309.048 44.9247 309.265 44.9708 309.585 44.7863C312.091 43.2869 314.607 41.7991 317.135 40.3343C317.604 40.0575 317.799 39.6999 317.787 39.1694C317.765 37.8776 317.787 36.5974 317.776 35.3056C317.776 30.5422 317.776 25.7673 317.776 21.0039C317.776 20.5426 317.73 20.1274 317.284 19.8621C314.722 18.3512 312.159 16.8172 309.585 15.3294C309.368 15.2025 308.933 15.2256 308.716 15.3525C305.398 17.4054 302.115 19.4815 298.809 21.546C297.093 22.6186 295.412 23.7605 294.073 25.3175C291.751 28.0048 291.637 31.5226 293.776 34.3599C294.668 35.5363 295.789 36.459 296.99 37.2779C297.951 37.9238 298.924 38.5581 299.965 39.2501C298.649 40.0229 297.391 40.738 296.155 41.4876C295.755 41.7299 295.412 41.7529 295.069 41.4415C293.833 40.392 292.483 39.4462 291.385 38.2582C288.296 34.9365 287.45 30.9574 288.628 26.6093C289.543 23.2184 291.751 20.7617 294.645 18.9163C297.688 16.9787 300.777 15.1103 303.843 13.2187C304.152 13.0342 304.449 12.8381 304.815 12.5959C304.609 12.4345 304.472 12.3076 304.312 12.2153C303.408 11.6848 302.493 11.1773 301.601 10.6237C301.189 10.3699 300.834 10.3699 300.422 10.6121C299.427 11.2119 298.42 11.8001 297.414 12.3883C297.334 12.4345 297.231 12.4575 297.059 12.5152C298.123 13.2072 299.015 13.7839 299.976 14.4067C298.558 15.2487 297.242 16.056 295.892 16.8057C295.721 16.898 295.366 16.8172 295.172 16.6904C294.577 16.3097 294.005 15.883 293.456 15.4447C293.078 15.1333 292.746 15.0987 292.312 15.3525C289.795 16.8403 287.278 18.3166 284.762 19.7929C284.373 20.0236 284.201 20.3119 284.201 20.7733C284.213 26.9437 284.213 33.1142 284.201 39.2847C284.201 39.7691 284.384 40.069 284.785 40.3112C287.29 41.776 289.784 43.2523 292.277 44.7286C292.655 44.9593 292.975 44.9247 293.33 44.6825C294.085 44.1634 294.863 43.6675 295.629 43.1716C299.004 41.0148 302.39 38.858 305.765 36.6897C306.222 36.3898 306.622 36.0092 307.057 35.6516C307.023 35.5824 306.989 35.5248 306.966 35.4556C304.071 35.4556 301.177 35.4556 298.192 35.4556C298.992 34.0485 299.759 32.7682 300.468 31.4534C300.743 30.9459 301.074 30.7614 301.646 30.7729C305.456 30.796 309.276 30.7844 313.086 30.7844C313.315 30.7614 313.543 30.7614 313.795 30.7614Z" fill="white"/>
<path d="M313.659 28.2581C312.389 28.2581 311.154 28.2812 309.929 28.235C309.758 28.235 309.495 27.9813 309.426 27.7852C308.763 26.0091 307.596 24.6481 306.097 23.5639C304.793 22.6066 303.432 21.7186 302.036 20.7497C302.391 20.5306 302.711 20.323 303.043 20.1269C303.958 19.5848 304.873 19.0197 305.811 18.5237C306.074 18.3853 306.532 18.3277 306.749 18.4661C309.06 19.977 311.085 21.7878 312.435 24.2559C313.167 25.5592 313.636 27.0702 313.659 28.2581Z" fill="white"/>
<g filter="url(#filter1_d_8_2)">
<circle cx="300.5" cy="29.5" r="28.5" stroke="#1190F2" stroke-width="2"/>
</g>
<g filter="url(#filter2_d_8_2)">
<path d="M239.707 31.7071C240.098 31.3166 240.098 30.6834 239.707 30.2929L233.343 23.9289C232.953 23.5384 232.319 23.5384 231.929 23.9289C231.538 24.3195 231.538 24.9526 231.929 25.3431L237.586 31L231.929 36.6569C231.538 37.0474 231.538 37.6805 231.929 38.0711C232.319 38.4616 232.953 38.4616 233.343 38.0711L239.707 31.7071ZM95 32H239V30H95V32Z" fill="#018FFF"/>
</g>
<defs>
<filter id="filter0_d_8_2" x="0" y="0" width="67" height="67" filterUnits="userSpaceOnUse" color-interpolation-filters="sRGB">
<feFlood flood-opacity="0" result="BackgroundImageFix"/>
<feColorMatrix in="SourceAlpha" type="matrix" values="0 0 0 0 0 0 0 0 0 0 0 0 0 0 0 0 0 0 127 0" result="hardAlpha"/>
<feOffset dy="4"/>
<feGaussianBlur stdDeviation="2"/>
<feColorMatrix type="matrix" values="0 0 0 0 0 0 0 0 0 0 0 0 0 0 0 0 0 0 0.15 0"/>
<feBlend mode="normal" in2="BackgroundImageFix" result="effect1_dropShadow_8_2"/>
<feBlend mode="normal" in="SourceGraphic" in2="effect1_dropShadow_8_2" result="shape"/>
</filter>
<filter id="filter1_d_8_2" x="267" y="0" width="67" height="67" filterUnits="userSpaceOnUse" color-interpolation-filters="sRGB">
<feFlood flood-opacity="0" result="BackgroundImageFix"/>
<feColorMatrix in="SourceAlpha" type="matrix" values="0 0 0 0 0 0 0 0 0 0 0 0 0 0 0 0 0 0 127 0" result="hardAlpha"/>
<feOffset dy="4"/>
<feGaussianBlur stdDeviation="2"/>
<feColorMatrix type="matrix" values="0 0 0 0 0 0 0 0 0 0 0 0 0 0 0 0 0 0 0.15 0"/>
<feBlend mode="normal" in2="BackgroundImageFix" result="effect1_dropShadow_8_2"/>
<feBlend mode="normal" in="SourceGraphic" in2="effect1_dropShadow_8_2" result="shape"/>
</filter>
<filter id="filter2_d_8_2" x="87" y="21.636" width="161" height="30.728" filterUnits="userSpaceOnUse" color-interpolation-filters="sRGB">
<feFlood flood-opacity="0" result="BackgroundImageFix"/>
<feColorMatrix in="SourceAlpha" type="matrix" values="0 0 0 0 0 0 0 0 0 0 0 0 0 0 0 0 0 0 127 0" result="hardAlpha"/>
<feOffset dy="6"/>
<feGaussianBlur stdDeviation="4"/>
<feColorMatrix type="matrix" values="0 0 0 0 0 0 0 0 0 0 0 0 0 0 0 0 0 0 0.25 0"/>
<feBlend mode="normal" in2="BackgroundImageFix" result="effect1_dropShadow_8_2"/>
<feBlend mode="normal" in="SourceGraphic" in2="effect1_dropShadow_8_2" result="shape"/>
</filter>
</defs>
</svg>
