<svg width="85" height="86" viewBox="0 0 85 86" fill="none" xmlns="http://www.w3.org/2000/svg">
<g filter="url(#filter0_d_0_360)">
<ellipse cx="42.9562" cy="32" rx="31.9987" ry="32" fill="#915D3B" fill-opacity="0.5"/>
<ellipse cx="42.9565" cy="32" rx="24.999" ry="25" fill="#C87038"/>
<path d="M60.6627 35.8129C59.8922 38.4776 56.8103 40.8542 53.8685 41.2383C50.81 41.6224 48.195 40.6862 46.1871 38.3576C44.5294 36.4131 43.1052 34.2525 41.5642 32.1879C40.3035 30.5315 39.1361 28.755 37.7119 27.2426C35.4004 24.7699 32.3886 24.3858 29.6102 25.8982C26.9719 27.3386 25.501 30.3154 25.9913 33.3162C26.5049 36.4611 28.8631 38.8137 32.0384 39.2938C34.2097 39.6299 36.0308 38.7897 37.5718 37.3013C38.459 36.4611 39.2295 35.5008 40.0466 34.5886C41.3775 35.7409 41.4008 36.053 40.2568 37.3973C37.5017 40.6382 34.233 42.1746 30.0538 40.8542C26.6684 39.774 24.2402 36.5571 23.9834 32.9801C23.7032 29.0911 25.6177 25.6582 29.0031 23.9537C32.2251 22.3213 36.0542 22.7534 38.7158 25.4901C40.6537 27.4827 42.1713 29.9073 43.8757 32.1159C45.2532 33.8924 46.4906 35.8129 48.0783 37.3733C51.0668 40.3261 55.3161 39.99 57.9544 36.7011C58.7482 35.7409 59.5187 35.5488 60.6627 35.8129Z" fill="white"/>
<path d="M51.1361 31.1554C53.8912 31.1554 56.5997 31.1554 59.2848 31.1554C59.5883 28.9949 57.3935 26.4982 55.5023 25.682C50.8325 23.7134 48.0074 26.4742 45.4623 29.9071C44.1081 28.3467 44.1081 28.2987 45.3923 26.8343C48.5911 23.1853 52.2568 22.153 56.156 23.8095C59.3548 25.1538 61.5729 28.6108 61.5729 32.0917C61.5729 32.9799 61.3161 33.268 60.4289 33.268C57.7905 33.22 55.1287 33.244 52.4903 33.244C50.8092 33.22 50.7625 33.172 51.1361 31.1554Z" fill="white"/>
</g>
<defs>
<filter id="filter0_d_0_360" x="0.95752" y="0" width="83.9974" height="86" filterUnits="userSpaceOnUse" color-interpolation-filters="sRGB">
<feFlood flood-opacity="0" result="BackgroundImageFix"/>
<feColorMatrix in="SourceAlpha" type="matrix" values="0 0 0 0 0 0 0 0 0 0 0 0 0 0 0 0 0 0 127 0" result="hardAlpha"/>
<feOffset dy="12"/>
<feGaussianBlur stdDeviation="5"/>
<feColorMatrix type="matrix" values="0 0 0 0 0.0973605 0 0 0 0 0.0434774 0 0 0 0 0.165939 0 0 0 0.25 0"/>
<feBlend mode="normal" in2="BackgroundImageFix" result="effect1_dropShadow_0_360"/>
<feBlend mode="normal" in="SourceGraphic" in2="effect1_dropShadow_0_360" result="shape"/>
</filter>
</defs>
</svg>
