<svg width="40" height="40" viewBox="0 0 40 40" fill="none" xmlns="http://www.w3.org/2000/svg">
<g filter="url(#filter0_d_0_773)">
<circle cx="20" cy="16" r="15" stroke="#1190F2" stroke-width="2"/>
</g>
<path d="M11.0055 16.9946C11.0055 15.4458 11.011 13.9025 11 12.3537C11 12.0681 11.0987 11.9033 11.3399 11.766C14.0101 10.2117 16.6749 8.65193 19.3341 7.08665C19.5699 6.94935 19.7508 6.98779 19.9647 7.11411C22.4813 8.59701 25.009 10.0689 27.5257 11.5518C28.3097 12.0132 28.2494 11.777 28.2494 12.826C28.2494 15.7533 28.2439 18.6807 28.2549 21.6135C28.2549 21.9266 28.1562 22.1133 27.8821 22.2726C25.2502 23.7994 22.6294 25.3372 20.0085 26.8805C19.7344 27.0398 19.526 27.0398 19.2574 26.8805C16.6365 25.3372 14.0101 23.8049 11.3838 22.2781C11.1097 22.1188 11.0055 21.9321 11.011 21.619C11.011 20.0702 11.0055 18.5324 11.0055 16.9946ZM25.7602 17.3626C25.7656 17.4669 25.7876 17.5438 25.7711 17.6097C25.6286 18.1754 25.5244 18.7576 25.316 19.3013C24.828 20.581 23.8959 21.5037 22.7555 22.2177C21.1928 23.1953 19.6137 24.1509 18.0401 25.1175C17.9524 25.1725 17.8702 25.2329 17.766 25.3043C17.8318 25.3647 17.8592 25.3976 17.8976 25.4196C18.3088 25.6778 18.72 25.9304 19.1312 26.183C19.4986 26.4082 19.8605 26.3588 20.2114 26.1336C20.5733 25.9029 20.9406 25.6832 21.3025 25.4526C21.3628 25.4141 21.4122 25.3702 21.4999 25.3098C21.0338 25.0132 20.5952 24.7276 20.1182 24.42C20.809 24.0246 21.4451 23.6456 22.092 23.2941C22.1743 23.2502 22.3443 23.2941 22.4375 23.3546C22.75 23.5578 23.0516 23.7829 23.3531 24.0081C23.4847 24.107 23.5889 24.129 23.7424 24.0411C24.9432 23.3271 26.1494 22.6186 27.3612 21.9211C27.586 21.7893 27.6792 21.619 27.6737 21.3664C27.6627 20.7512 27.6737 20.1416 27.6682 19.5265C27.6682 17.2582 27.6682 14.9844 27.6682 12.7162C27.6682 12.4965 27.6463 12.2988 27.4325 12.1724C26.2043 11.453 24.9761 10.7225 23.7424 10.014C23.6382 9.95358 23.4299 9.96457 23.3257 10.025C21.7357 11.0026 20.162 11.9912 18.5775 12.9743C17.755 13.4851 16.949 14.0288 16.3075 14.7702C15.1945 16.0499 15.1396 17.725 16.165 19.0761C16.5926 19.6363 17.13 20.0757 17.7057 20.4657C18.1662 20.7732 18.6323 21.0753 19.1312 21.4048C18.5007 21.7728 17.8976 22.1133 17.3054 22.4703C17.1135 22.5856 16.949 22.5966 16.7845 22.4483C16.1924 21.9485 15.5454 21.4982 15.019 20.9325C13.5386 19.3507 13.1329 17.4559 13.6976 15.3854C14.1363 13.7707 15.1945 12.6008 16.5817 11.7221C18.0401 10.7994 19.5205 9.90964 20.99 9.00892C21.138 8.92105 21.2806 8.82768 21.456 8.71234C21.3573 8.63545 21.2915 8.57504 21.2148 8.5311C20.7816 8.27846 20.343 8.0368 19.9153 7.77318C19.7179 7.65235 19.5479 7.65235 19.3506 7.76769C18.8735 8.05328 18.391 8.33338 17.9085 8.61348C17.8702 8.63545 17.8208 8.64644 17.7386 8.6739C18.2485 9.00343 18.6762 9.27804 19.1367 9.57462C18.4568 9.97555 17.8263 10.36 17.1793 10.717C17.0971 10.7609 16.9271 10.7225 16.8339 10.6621C16.5488 10.4808 16.2746 10.2776 16.0114 10.0689C15.8305 9.92063 15.6715 9.90415 15.4631 10.025C14.2569 10.7335 13.0506 11.4365 11.8444 12.1395C11.658 12.2493 11.5757 12.3866 11.5757 12.6063C11.5812 15.5446 11.5812 18.483 11.5757 21.4213C11.5757 21.652 11.6634 21.7948 11.8553 21.9101C13.0561 22.6076 14.2514 23.3106 15.4467 24.0136C15.6276 24.1235 15.7811 24.107 15.9511 23.9916C16.313 23.7445 16.6858 23.5083 17.0532 23.2722C18.6707 22.2451 20.2936 21.2181 21.9111 20.1856C22.1304 20.0428 22.3223 19.8615 22.5307 19.6913C22.5142 19.6583 22.4978 19.6308 22.4868 19.5979C21.0996 19.5979 19.7124 19.5979 18.2814 19.5979C18.6652 18.9278 19.0325 18.3182 19.3725 17.6921C19.5041 17.4504 19.6631 17.3626 19.9372 17.3681C21.7631 17.379 23.5944 17.3735 25.4202 17.3735C25.5299 17.3626 25.6395 17.3626 25.7602 17.3626Z" fill="white"/>
<path d="M25.6949 16.171C25.0863 16.171 24.4941 16.182 23.9075 16.16C23.8252 16.16 23.6991 16.0392 23.6662 15.9458C23.3482 15.1 22.7889 14.4519 22.0707 13.9357C21.4456 13.4798 20.7931 13.0569 20.1242 12.5956C20.2942 12.4912 20.4477 12.3924 20.6067 12.299C21.0453 12.0409 21.484 11.7717 21.9336 11.5356C22.0597 11.4697 22.279 11.4422 22.3832 11.5081C23.4907 12.2276 24.4612 13.0899 25.1082 14.2652C25.4591 14.8858 25.6839 15.6053 25.6949 16.171Z" fill="white"/>
<defs>
<filter id="filter0_d_0_773" x="0" y="0" width="40" height="40" filterUnits="userSpaceOnUse" color-interpolation-filters="sRGB">
<feFlood flood-opacity="0" result="BackgroundImageFix"/>
<feColorMatrix in="SourceAlpha" type="matrix" values="0 0 0 0 0 0 0 0 0 0 0 0 0 0 0 0 0 0 127 0" result="hardAlpha"/>
<feOffset dy="4"/>
<feGaussianBlur stdDeviation="2"/>
<feColorMatrix type="matrix" values="0 0 0 0 0 0 0 0 0 0 0 0 0 0 0 0 0 0 0.15 0"/>
<feBlend mode="normal" in2="BackgroundImageFix" result="effect1_dropShadow_0_773"/>
<feBlend mode="normal" in="SourceGraphic" in2="effect1_dropShadow_0_773" result="shape"/>
</filter>
</defs>
</svg>
