<svg width="85" height="86" viewBox="0 0 85 86" fill="none" xmlns="http://www.w3.org/2000/svg">
<g filter="url(#filter0_d_0_329)">
<ellipse cx="42.9684" cy="32" rx="31.9987" ry="32" fill="#4948A8" fill-opacity="0.4"/>
<ellipse cx="42.9677" cy="32" rx="24.999" ry="25" fill="#5454BD"/>
<path d="M43.3678 14.0072C44.2585 15.5688 45.1424 17.1303 46.0331 18.6846C48.5328 23.0512 51.0394 27.4105 53.5459 31.7771C53.5943 31.8566 53.6357 31.9434 53.7186 32.0952C53.5666 32.0301 53.4631 31.994 53.3664 31.9506C50.1141 30.4613 46.8618 28.9649 43.6094 27.4828C43.3678 27.3744 43.2987 27.2443 43.2987 26.9768C43.3056 22.7114 43.3056 18.4461 43.3056 14.1807C43.3056 14.1229 43.2987 14.0578 43.2987 14C43.3263 14.0072 43.347 14.0072 43.3678 14.0072Z" fill="white"/>
<path d="M42.6088 14.0073C42.6088 18.3305 42.6088 22.6537 42.6157 26.9841C42.6157 27.2444 42.5536 27.3817 42.3119 27.4902C39.0872 28.9577 35.8694 30.4397 32.6516 31.9145C32.5825 31.9507 32.5066 31.9724 32.3547 32.0374C32.4444 31.8639 32.4928 31.7483 32.5549 31.6398C35.8349 25.8708 39.1148 20.1017 42.3947 14.3254C42.45 14.2242 42.4914 14.1085 42.5398 14.0073C42.5674 14.0073 42.5881 14.0073 42.6088 14.0073Z" fill="white"/>
<path d="M43.3203 39.5491C43.3203 35.7175 43.3203 31.9655 43.3203 28.1411C46.8696 29.7677 50.3843 31.3799 53.968 33.021C50.3912 35.2115 46.8765 37.3658 43.3203 39.5491Z" fill="white"/>
<path d="M42.5813 39.5272C39.0458 37.3584 35.5449 35.2113 31.9681 33.0208C35.538 31.3797 39.0527 29.7748 42.5813 28.1554C42.5813 31.9653 42.5813 35.7318 42.5813 39.5272Z" fill="white"/>
<path d="M53.7746 35.5361C50.3151 40.6617 46.8487 45.7946 43.3409 50.9853C43.3202 50.8262 43.3064 50.7395 43.3064 50.6527C43.3064 47.8116 43.3064 44.9704 43.3133 42.1293C43.3133 42.0064 43.3962 41.8256 43.4928 41.7606C46.8694 39.6785 50.253 37.6037 53.6365 35.5361C53.6641 35.5216 53.6986 35.5071 53.7262 35.4927C53.747 35.5071 53.7608 35.5216 53.7746 35.5361Z" fill="white"/>
<path d="M32.2092 35.4858C33.7352 36.4257 35.2612 37.3583 36.7873 38.2908C38.6448 39.4259 40.4953 40.5609 42.3528 41.6959C42.5047 41.7899 42.6221 41.8622 42.6221 42.1007C42.6152 44.978 42.6152 47.8553 42.6152 50.7326C42.6152 50.7905 42.6083 50.8411 42.5945 51.0001C39.0798 45.795 35.6134 40.6621 32.1539 35.5364C32.1677 35.5148 32.1885 35.5003 32.2092 35.4858Z" fill="white"/>
</g>
<defs>
<filter id="filter0_d_0_329" x="0.969727" y="0" width="83.9974" height="86" filterUnits="userSpaceOnUse" color-interpolation-filters="sRGB">
<feFlood flood-opacity="0" result="BackgroundImageFix"/>
<feColorMatrix in="SourceAlpha" type="matrix" values="0 0 0 0 0 0 0 0 0 0 0 0 0 0 0 0 0 0 127 0" result="hardAlpha"/>
<feOffset dy="12"/>
<feGaussianBlur stdDeviation="5"/>
<feColorMatrix type="matrix" values="0 0 0 0 0.0973605 0 0 0 0 0.0434774 0 0 0 0 0.165939 0 0 0 0.25 0"/>
<feBlend mode="normal" in2="BackgroundImageFix" result="effect1_dropShadow_0_329"/>
<feBlend mode="normal" in="SourceGraphic" in2="effect1_dropShadow_0_329" result="shape"/>
</filter>
</defs>
</svg>
