<svg width="90" height="92" viewBox="0 0 90 92" fill="none" xmlns="http://www.w3.org/2000/svg">
<g filter="url(#filter0_d_0_1162)">
<circle cx="45" cy="35" r="35" fill="#644696" fill-opacity="0.5"/>
<path d="M72.5759 35.0001C72.5759 50.2297 60.2298 62.5758 45.0001 62.5758C29.7705 62.5758 17.4244 50.2297 17.4244 35.0001C17.4244 19.7704 29.7705 7.42432 45.0001 7.42432C60.2298 7.42432 72.5759 19.7704 72.5759 35.0001Z" fill="#644696"/>
<path d="M47.514 50C46.5747 50 45.6307 50 44.6914 50C44.6914 48.4995 44.6914 47.0038 44.6914 45.4602C43.9712 45.4602 43.2753 45.4602 42.5843 45.4602C42.4188 45.4602 42.4529 45.5944 42.4529 45.6903C42.4529 47.1285 42.4529 48.5666 42.4529 50C41.5137 50 40.5696 50 39.6304 50C39.6304 48.4708 39.6304 46.9415 39.6304 45.3787C37.7325 45.3787 35.8687 45.3787 34.0195 45.3787C34.0049 45.3308 34 45.3116 34 45.302C34.1752 44.2809 34.3504 43.255 34.5207 42.2339C34.545 42.0805 34.6375 42.0901 34.7446 42.0901C35.3188 42.0901 35.8979 42.0901 36.4721 42.0901C37.2653 42.0853 37.6401 41.7066 37.6401 40.9204C37.6401 36.9415 37.6401 32.9626 37.6401 28.9885C37.6401 28.1256 37.1048 27.5599 36.2288 27.512C35.7665 27.488 35.3042 27.488 34.8419 27.4832C34.5596 27.4784 34.2823 27.4832 34 27.4832C34 26.4909 34 25.5273 34 24.535C35.8833 24.535 37.752 24.535 39.6304 24.535C39.6304 23.001 39.6304 21.5005 39.6304 20C40.5696 20 41.5137 20 42.4529 20C42.4529 21.4142 42.4529 22.8284 42.4432 24.2426C42.4432 24.4104 42.4967 24.4631 42.667 24.4583C43.1537 24.4391 43.6403 24.4391 44.1269 24.4343C44.307 24.4343 44.4919 24.4343 44.6914 24.4343C44.6914 22.9243 44.6914 21.4621 44.6914 20C45.6307 20 46.5747 20 47.514 20C47.5091 20.0959 47.5042 20.1918 47.5042 20.2876C47.5042 21.5676 47.5042 22.8428 47.5042 24.1227C47.5042 24.5638 47.5042 24.559 47.9617 24.6069C49.2123 24.7411 50.4435 24.9616 51.6017 25.4938C52.6918 25.9923 53.5434 26.721 53.9911 27.8523C54.3123 28.6673 54.3902 29.511 54.3269 30.3691C54.2198 31.8361 53.5288 32.953 52.2392 33.7009C52.1516 33.7536 52.064 33.8015 51.9424 33.8686C52.0202 33.907 52.0543 33.9214 52.0932 33.9358C52.575 34.1131 53.0811 34.2522 53.5434 34.4823C54.6675 35.0431 55.4754 35.8869 55.7917 37.1237C56.1129 38.3605 56.0399 39.5973 55.7284 40.8197C55.4559 41.8792 54.9449 42.8092 54.0884 43.5283C53.12 44.3432 51.957 44.7747 50.7355 45.0144C49.7622 45.2013 48.7646 45.278 47.7719 45.3835C47.5577 45.4075 47.4994 45.4746 47.5042 45.6759C47.5188 46.0451 47.5091 46.4094 47.5091 46.7785C47.5091 47.8428 47.5091 48.9214 47.514 50ZM42.5064 42.0901C43.3775 42.0901 44.2048 42.1093 45.0272 42.0853C46.1465 42.0518 47.2609 41.9319 48.3218 41.5484C48.9885 41.3087 49.6211 40.9875 50.0007 40.3595C50.7452 39.1371 50.3559 37.5887 49.1053 36.8648C48.1952 36.3375 47.183 36.1026 46.1368 36.0546C45.0272 36.0067 43.9177 36.0211 42.8082 35.9923C42.5648 35.9875 42.4967 36.0546 42.4967 36.2991C42.5064 38.1352 42.5016 39.9712 42.5016 41.8073C42.5064 41.8936 42.5064 41.9799 42.5064 42.0901ZM42.5113 30.441C42.5113 31.2943 42.5113 32.1524 42.5113 33.0058C42.5113 33.14 42.5162 33.2311 42.7011 33.2359C44.1221 33.2598 45.5382 33.255 46.9251 32.8907C47.6453 32.6989 48.2731 32.3538 48.7111 31.7641C49.3778 30.8629 49.1539 29.372 48.2731 28.6481C47.5577 28.0633 46.6867 27.838 45.7961 27.7661C44.779 27.6846 43.7571 27.7085 42.7352 27.675C42.5356 27.6702 42.5113 27.7613 42.5113 27.9243C42.5113 28.7632 42.5064 29.6021 42.5113 30.441Z" fill="white"/>
</g>
<defs>
<filter id="filter0_d_0_1162" x="0" y="0" width="90" height="92" filterUnits="userSpaceOnUse" color-interpolation-filters="sRGB">
<feFlood flood-opacity="0" result="BackgroundImageFix"/>
<feColorMatrix in="SourceAlpha" type="matrix" values="0 0 0 0 0 0 0 0 0 0 0 0 0 0 0 0 0 0 127 0" result="hardAlpha"/>
<feOffset dy="12"/>
<feGaussianBlur stdDeviation="5"/>
<feColorMatrix type="matrix" values="0 0 0 0 0.0973605 0 0 0 0 0.0434774 0 0 0 0 0.165939 0 0 0 0.25 0"/>
<feBlend mode="normal" in2="BackgroundImageFix" result="effect1_dropShadow_0_1162"/>
<feBlend mode="normal" in="SourceGraphic" in2="effect1_dropShadow_0_1162" result="shape"/>
</filter>
</defs>
</svg>
